<svg id="Livello_1" data-name="Livello 1" xmlns="http://www.w3.org/2000/svg" width="25.77cm" height="7.43cm" viewBox="0 0 730.49 210.71">
  <defs>
    <style>
      .cls-1 {
        fill: #afca0b;
      }

      .cls-2 {
        fill: #00afcb;
      }

      .cls-3 {
        fill: #856aa1;
      }

      .cls-4 {
        fill: #f6ca21;
      }

      .cls-5 {
        fill: #e94f35;
      }

      .cls-6 {
        fill: #fff;
      }
    </style>
  </defs>
  <title>AFRIL_Logo</title>
  <g>
    <path class="cls-1" d="M453.09,423.32l-3-7.65,0.2-.7L406.45,301.68Q399.9,285,387.38,275.92a47.57,47.57,0,0,0-28.57-9h-0.6a47.57,47.57,0,0,0-28.57,9q-12.51,9-19.07,25.76L266.71,415l0.2,0.7-3,7.65q-3.61,10.57-3.61,17a28.07,28.07,0,0,0,5,16.53A32.89,32.89,0,0,0,279.6,468c0.74,0.32,1.49.61,2.23,0.88l0.05,0.18a32,32,0,0,0,9,1.69l0.61,0c0.26,0,.52,0,0.78,0H424.79c0.26,0,.52,0,0.78,0l0.61,0a32,32,0,0,0,9-1.69l0.05-.18c0.75-.27,1.49-0.55,2.23-0.88a32.89,32.89,0,0,0,14.25-11.17,28.07,28.07,0,0,0,5-16.53Q456.7,433.89,453.09,423.32Z" transform="translate(-260.33 -265.46)"/>
    <g>
      <path class="cls-2" d="M491.83,470.47a30.45,30.45,0,0,1-22.48-9.5A31.1,31.1,0,0,1,460,438.35V300a32.82,32.82,0,0,1,4.28-16.32A30.36,30.36,0,0,1,476,271.82a32.23,32.23,0,0,1,16.06-4.22h74.8A27.49,27.49,0,0,1,587,276.17a26.38,26.38,0,0,1,7.9,19.4q0,10.84-8.43,20.07-9,7.9-19.8,7.9h-43v19.67h36.4A25.55,25.55,0,0,1,573.93,347a28.53,28.53,0,0,1,13.31,24.15,27.59,27.59,0,0,1-14.05,23.55,26.44,26.44,0,0,1-13.38,3.61H523.68v40A31.1,31.1,0,0,1,514.31,461,30.45,30.45,0,0,1,491.83,470.47Z" transform="translate(-260.33 -265.46)"/>
      <path class="cls-3" d="M784.21,460a31.29,31.29,0,0,1-9.37-23V297.45a30.42,30.42,0,0,1,9.3-22.55,31.63,31.63,0,0,1,49.78,6.62,32,32,0,0,1,4.21,16.19V437.55a33.17,33.17,0,0,1-2.34,12.24,30.48,30.48,0,0,1-6.89,10.5,31,31,0,0,1-22.21,9Q793,469.26,784.21,460Z" transform="translate(-260.33 -265.46)"/>
      <path class="cls-4" d="M887.25,466.85q-14.18,0-23.68-9.7t-9.5-24.82V297.45a32.1,32.1,0,0,1,2.48-12.31,31.56,31.56,0,0,1,6.89-10.44,30.6,30.6,0,0,1,22.48-9.23,32.52,32.52,0,0,1,12.24,2.34,26.87,26.87,0,0,1,10,6.89,31.41,31.41,0,0,1,9.63,23v114h46.3a25.73,25.73,0,0,1,13.58,3.68,26.3,26.3,0,0,1,9.63,10.24,29.08,29.08,0,0,1,3.55,14.05,26.81,26.81,0,0,1-8,19.27,25.53,25.53,0,0,1-18.8,7.9H887.25Z" transform="translate(-260.33 -265.46)"/>
    </g>
    <path class="cls-5" d="M741.68,284.52a55.77,55.77,0,0,1,5.6,5.76A62.93,62.93,0,0,1,760.13,317a80.45,80.45,0,0,1,2.14,17.26q0,27.43-18.6,43.76l-1.07,1.2-6.29,5-3.88,2.94L755.71,418a32.32,32.32,0,0,1,6.82,20.07,30.93,30.93,0,0,1-3.41,14.12,32.43,32.43,0,0,1-10,11.57,30.45,30.45,0,0,1-18.06,6.16q-17.13,0-29-18.2L661.1,391v46.84a30.57,30.57,0,0,1-4.22,15.92A31.93,31.93,0,0,1,645.58,465a30.56,30.56,0,0,1-15.92,4.22A32.46,32.46,0,0,1,598.08,437v-136a38.42,38.42,0,0,1,3.95-18,27.25,27.25,0,0,1,11-11.51q7.09-3.95,17.13-3.95h43S724.37,265.41,741.68,284.52Z" transform="translate(-260.33 -265.46)"/>
    <g>
      <path class="cls-6" d="M381.2,408.15c-1.94,8.49-5.11,14.87-16.34,13.31,7.78,6.74,11.82,13.42,14,21.58,0.58,2.12,4.14,3.4,6.46,4.87,4,2.53,8.24,4.61,12,7.44,2.23,1.69,1.66,4.17-1,5.53-13.67,6.94-27.61,13.08-42.8,15.12-9,1.21-14.74-4.49-19.88-10.61-3.88-4.62-7.61-6.55-13.86-5.19-5.33,1.16-11.19.63-16.59-.35-2.48-.45-5.35-3.34-6.44-5.89-3-7.11-2.42-14.73-.57-22.24,2.47-10,4.89-20,7.59-29.94,0.35-1.28,2.19-3,3.39-3,5-.25,10.09-0.6,14.86.44,2.38,0.52,5.56,3.76,5.85,6.14,0.52,4.27-3.46,4.07-6.49,4.08a21.22,21.22,0,0,0-3,.71l6.16,13.17c6-8.64,14.78-13.79,13.51-25.13-0.1-.85,2.64-3,4-3,11.66,0.22,22.81,2.39,32.54,9.57C376.59,406.24,379.06,407.07,381.2,408.15Z" transform="translate(-260.33 -265.46)"/>
      <path class="cls-6" d="M339,362.79c-3.31,3.05-5.83,2.09-5.83-2.19a231.84,231.84,0,0,1,1.4-24.63,8.9,8.9,0,0,1,4-5.81c1.74-1,5.14-1.11,6.48,0,1.81,1.57,3.65,5,3.15,7.13-0.87,3.75-3.47,7.09-5.37,10.6C340.29,352.54,337.05,356.94,339,362.79Z" transform="translate(-260.33 -265.46)"/>
      <path class="cls-6" d="M299.29,386.08c-4.69-1.7-5.88-5.44-5.09-8.94a18.86,18.86,0,0,0-4.35-17.61c-2.32-2.72-3.86-6.4-.69-9.22,1.6-1.42,5.27-1.85,7.24-1,3.76,1.72,6.25,4.86,3.35,9.77-1.51,2.56-2.78,5.17,1.19,7.15,1,0.51,1,3.43,1.32,5.26,0.51,2.59,1,5.19,1.4,7.81,0.24,1.71.91,4,.13,5.06C302.86,385.59,300.57,385.66,299.29,386.08Z" transform="translate(-260.33 -265.46)"/>
      <path class="cls-6" d="M365.37,349.57c0.44-4.78.53-9.62,1.41-14.32,0.7-3.72,2.72-7.57,7.07-6.61,2.34,0.52,4.48,3.11,6.09,5.28,0.64,0.87-.13,3.22-0.72,4.7-2.19,5.45-4.56,10.83-6.9,16.21-0.61,1.41-1.08,3.12-2.14,4s-3.07,1.72-4.23,1.31-2.18-2.41-2.19-3.74c0-2.27.82-4.55,1.29-6.83Z" transform="translate(-260.33 -265.46)"/>
      <path class="cls-6" d="M400.16,378.3c-5.35-1.62-5.88-4.46-3.46-7.9s4-7.64,6.48-11c1.64-2.21,4.75-5.32,6.48-4.92,2.38,0.55,4.31,3.88,5.92,6.39,0.5,0.77-.47,3.81-1.15,4-5.38,1.32-6.13,6.75-9.1,10.16C403.81,376.73,401.32,377.58,400.16,378.3Z" transform="translate(-260.33 -265.46)"/>
      <path class="cls-6" d="M422,450.86c2.46-1.2,4-2.28,5.68-2.72a144.15,144.15,0,0,1,16.27-3.64c1.58-.22,3.82,1.52,4.95,3,0.44,0.59-1.21,4.25-2.14,4.38-7.21,1-14.47,1.51-21.72,2C424.3,453.91,423.52,452.43,422,450.86Z" transform="translate(-260.33 -265.46)"/>
      <path class="cls-6" d="M389.8,397.79c-4.68-4.27-4.81-8.74-2.92-13.68,1.71-4.48,5.42-4.05,8.32-2.87,3.11,1.27,3.93,4.57,1.75,7.69C394.87,391.91,392.41,394.58,389.8,397.79Z" transform="translate(-260.33 -265.46)"/>
      <path class="cls-6" d="M359.69,370c2.31,0.41,4.63.77,6.88,1.38a15.55,15.55,0,0,1-.49,3.13c-2.34-.13-4.67-0.49-7-0.81Z" transform="translate(-260.33 -265.46)"/>
    </g>
    <g>
      <path class="cls-6" d="M682.58,344.43c3.15,6.51,6.9,11.09,15.71,7.75-5.05,6.9-7.09,13.06-7.37,20.09-0.07,1.82-2.73,3.52-4.33,5.14-2.75,2.78-5.82,5.26-8.32,8.25-1.49,1.79-.57,3.69,1.84,4.29,12.36,3.08,24.79,5.47,37.48,4.31,7.5-.69,11.11-6.37,14.13-12.28,2.28-4.46,5-6.72,10.26-6.78,4.53,0,9.18-1.56,13.38-3.36,1.92-.82,3.71-3.7,4.12-6,1.13-6.32-.77-12.39-3.67-18.12-3.86-7.64-7.68-15.3-11.71-22.84a4.12,4.12,0,0,0-3.31-1.83c-4.07.72-8.29,1.38-12,3.11-1.83.86-3.8,4.07-3.6,6.06,0.37,3.56,3.56,2.65,6,2.1a17.64,17.64,0,0,1,2.57,0l-2.54,11.81c-6.45-5.89-14.53-8.43-15.6-17.85-0.08-.71-2.7-2-3.8-1.68-9.4,2.34-18,6.17-24.58,13.79A36.45,36.45,0,0,1,682.58,344.43Z" transform="translate(-260.33 -265.46)"/>
      <path class="cls-6" d="M708.36,299.85c3.25,1.86,5.11.61,4.32-2.86a192.66,192.66,0,0,0-5.7-19.69,7.4,7.4,0,0,0-4.3-4c-1.59-.48-4.37.06-5.24,1.24-1.18,1.61-2,4.75-1.23,6.36,1.4,2.87,4.13,5.1,6.31,7.59C705.4,291.79,708.84,294.76,708.36,299.85Z" transform="translate(-260.33 -265.46)"/>
      <path class="cls-6" d="M744.84,311.35c3.48-2.25,3.76-5.5,2.47-8.19a15.67,15.67,0,0,1,.26-15.07c1.37-2.63,1.94-5.9-1.15-7.6a6.66,6.66,0,0,0-6,.57c-2.73,2.09-4.16,5.1-.9,8.54,1.7,1.79,3.21,3.67.36,6-0.74.6-.14,3-0.09,4.5,0.07,2.2.13,4.4,0.32,6.59,0.12,1.43,0,3.44.83,4.12S743.72,311.25,744.84,311.35Z" transform="translate(-260.33 -265.46)"/>
      <path class="cls-6" d="M684.54,294c-1.24-3.79-2.22-7.7-3.8-11.34-1.26-2.89-3.61-5.63-7-4-1.8.85-3.05,3.35-4,5.41-0.36.83,0.7,2.58,1.46,3.67,2.79,4,5.7,7.92,8.6,11.85,0.76,1,1.45,2.33,2.48,2.86s2.81,0.82,3.67.28a3.93,3.93,0,0,0,1.08-3.44A27.88,27.88,0,0,0,684.8,294Z" transform="translate(-260.33 -265.46)"/>
      <path class="cls-6" d="M661.68,323.77c4-2.31,3.93-4.7,1.33-7s-4.63-5.45-7.29-7.73c-1.74-1.49-4.83-3.43-6.16-2.78-1.82.89-2.77,3.95-3.61,6.27-0.26.72,1.09,3,1.67,3,4.6,0.07,6.22,4.33,9.25,6.54C658.43,323.17,660.61,323.41,661.68,323.77Z" transform="translate(-260.33 -265.46)"/>
      <path class="cls-6" d="M657.47,386.6a30.51,30.51,0,0,0-5.11-1.15,119.8,119.8,0,0,0-13.85.07c-1.32.11-2.81,1.94-3.45,3.37-0.25.56,1.77,3.22,2.54,3.15,6-.54,12-1.46,18-2.45C656.16,389.49,656.52,388.16,657.47,386.6Z" transform="translate(-260.33 -265.46)"/>
      <path class="cls-6" d="M673.69,337.64c3-4.32,2.28-8-.17-11.62-2.22-3.31-5.15-2.28-7.27-.78-2.28,1.61-2.33,4.43,0,6.55S671,335.52,673.69,337.64Z" transform="translate(-260.33 -265.46)"/>
      <path class="cls-6" d="M692.92,309.55c-1.79.76-3.6,1.49-5.32,2.39a12.92,12.92,0,0,0,1,2.45c1.87-.54,3.69-1.27,5.51-2Z" transform="translate(-260.33 -265.46)"/>
    </g>
  </g>
</svg>
