<svg id="Layer_1" data-name="Layer 1" xmlns="http://www.w3.org/2000/svg" width="78.99mm" height="78.99mm" viewBox="0 0 223.9 223.9">
  <defs>
    <style>
      .cls-1 {
        fill: #1d1d1b;
      }

      .cls-2 {
        fill: #fff;
      }
    </style>
  </defs>
  <title>AFRIL_icon-2</title>
  <circle class="cls-1" cx="111.95" cy="111.95" r="111.95"/>
  <g>
    <path class="cls-2" d="M130.17,118c-1.94,8.49-5.11,14.86-16.33,13.3,7.78,6.74,11.81,13.41,14,21.57,0.58,2.12,4.14,3.4,6.46,4.87,4,2.53,8.24,4.61,12,7.44,2.23,1.69,1.66,4.17-1,5.53-13.66,6.94-27.6,13.07-42.78,15.11-9,1.21-14.73-4.49-19.87-10.61-3.88-4.62-7.61-6.55-13.85-5.19-5.33,1.16-11.18.63-16.58-.35-2.48-.45-5.35-3.34-6.44-5.89-3-7.11-2.42-14.72-.57-22.23,2.47-10,4.89-20,7.59-29.93,0.35-1.28,2.19-3,3.39-3,5-.25,10.09-0.6,14.85.44,2.38,0.52,5.56,3.76,5.85,6.14,0.52,4.27-3.46,4.07-6.49,4.08a21.21,21.21,0,0,0-3,.71l6.16,13.16c6-8.64,14.77-13.78,13.5-25.12-0.1-.85,2.64-3,4-3,11.65,0.22,22.8,2.39,32.53,9.57C125.56,116.12,128,116.95,130.17,118Z"/>
    <path class="cls-2" d="M88,72.69c-3.31,3-5.83,2.09-5.83-2.19a231.73,231.73,0,0,1,1.4-24.62,8.9,8.9,0,0,1,4-5.81c1.74-1,5.14-1.11,6.48,0,1.81,1.57,3.65,5,3.15,7.13-0.87,3.75-3.47,7.09-5.37,10.6C89.27,62.44,86,66.84,88,72.69Z"/>
    <path class="cls-2" d="M48.29,96c-4.69-1.7-5.88-5.44-5.09-8.94a18.85,18.85,0,0,0-4.35-17.6c-2.32-2.72-3.86-6.4-.69-9.22,1.6-1.42,5.27-1.85,7.24-1,3.76,1.72,6.25,4.86,3.35,9.77-1.51,2.56-2.78,5.17,1.19,7.15,1,0.51,1,3.43,1.32,5.26,0.51,2.59,1,5.19,1.4,7.81,0.24,1.71.91,4,.13,5.06C51.86,95.48,49.57,95.55,48.29,96Z"/>
    <path class="cls-2" d="M114.34,59.47c0.44-4.78.53-9.62,1.41-14.31,0.7-3.72,2.72-7.57,7.07-6.61,2.34,0.52,4.48,3.11,6.09,5.28,0.64,0.87-.13,3.22-0.72,4.7-2.19,5.45-4.56,10.83-6.9,16.2-0.61,1.41-1.08,3.12-2.14,4s-3.07,1.72-4.23,1.31-2.18-2.41-2.19-3.74c0-2.27.82-4.55,1.29-6.83h0.32Z"/>
    <path class="cls-2" d="M149.12,88.19c-5.35-1.62-5.88-4.46-3.46-7.9s4-7.64,6.48-11c1.64-2.21,4.75-5.32,6.48-4.92,2.38,0.55,4.31,3.88,5.92,6.39,0.5,0.77-.47,3.81-1.15,4-5.38,1.32-6.13,6.75-9.1,10.16C152.77,86.62,150.28,87.47,149.12,88.19Z"/>
    <path class="cls-2" d="M170.95,160.72c2.46-1.2,4-2.28,5.68-2.72a144.09,144.09,0,0,1,16.26-3.64c1.58-.22,3.82,1.52,4.95,3,0.44,0.59-1.21,4.25-2.14,4.38-7.21,1-14.46,1.51-21.71,2C173.25,163.77,172.47,162.29,170.95,160.72Z"/>
    <path class="cls-2" d="M138.76,107.67c-4.68-4.27-4.81-8.74-2.92-13.67,1.71-4.48,5.42-4,8.32-2.87,3.11,1.27,3.93,4.57,1.75,7.69S141.37,104.46,138.76,107.67Z"/>
    <path class="cls-2" d="M108.67,79.89c2.31,0.41,4.63.77,6.88,1.38a15.54,15.54,0,0,1-.49,3.13c-2.34-.13-4.67-0.49-7-0.81Z"/>
  </g>
</svg>
